<?xml version="1.0" standalone="no"?>
<!DOCTYPE svg PUBLIC "-//W3C//DTD SVG 20010904//EN"
 "http://www.w3.org/TR/2001/REC-SVG-20010904/DTD/svg10.dtd">
<svg version="1.0" xmlns="http://www.w3.org/2000/svg"
 width="100.000000pt" height="100.000000pt" viewBox="0 0 100.000000 100.000000"
 preserveAspectRatio="xMidYMid meet">

<g transform="translate(0.000000,100.000000) scale(0.100000,-0.100000)"
fill="#000000" stroke="none">
<path d="M240 773 c-47 -18 -50 -29 -50 -185 0 -135 2 -150 20 -168 12 -12 33
-20 55 -20 39 0 45 -16 20 -60 -19 -33 -18 -40 3 -40 22 0 99 48 126 78 17 20
29 22 123 22 90 0 106 3 123 20 11 11 20 28 20 38 1 9 1 75 1 146 0 180 13
170 -234 173 -105 1 -199 -1 -207 -4z m338 -155 c30 -30 -1 -73 -36 -51 -23
14 -25 29 -7 47 20 19 27 20 43 4z m-240 -7 c8 -4 12 -19 10 -32 -4 -29 -45
-34 -61 -7 -19 30 19 60 51 39z m130 -22 c3 -28 -16 -43 -42 -33 -38 14 -22
68 18 62 14 -2 22 -12 24 -29z"/>
<path d="M730 531 c0 -174 3 -171 -158 -171 -111 0 -120 -1 -140 -23 -12 -13
-19 -27 -15 -30 3 -4 53 -7 109 -7 94 0 104 -2 114 -21 13 -24 68 -59 93 -59
14 0 16 4 7 19 -17 32 -12 61 9 61 11 0 29 12 40 26 19 24 21 40 21 154 0 138
-7 160 -57 175 l-23 6 0 -130z"/>
</g>
</svg>
