<?xml version="1.0" standalone="no"?>
<!DOCTYPE svg PUBLIC "-//W3C//DTD SVG 20010904//EN"
 "http://www.w3.org/TR/2001/REC-SVG-20010904/DTD/svg10.dtd">
<svg version="1.0" xmlns="http://www.w3.org/2000/svg"
 width="100.000000pt" height="100.000000pt" viewBox="0 0 100.000000 100.000000"
 preserveAspectRatio="xMidYMid meet">

<g transform="translate(0.000000,100.000000) scale(0.100000,-0.100000)"
fill="#000000" stroke="none">
<path d="M240 690 c0 -6 102 -10 285 -10 l285 0 0 -150 c0 -127 2 -150 15
-150 13 0 15 24 15 160 l0 160 -300 0 c-193 0 -300 -4 -300 -10z"/>
<path d="M200 650 c0 -6 102 -10 285 -10 l285 0 0 -150 c0 -127 2 -150 15
-150 13 0 15 24 15 160 l0 160 -300 0 c-193 0 -300 -4 -300 -10z"/>
<path d="M170 465 l0 -155 290 0 290 0 0 155 0 155 -290 0 -290 0 0 -155z
m560 0 l0 -135 -270 0 -270 0 0 128 c0 71 3 132 7 135 3 4 125 7 270 7 l263 0
0 -135z"/>
<path d="M210 465 l0 -115 96 0 97 0 -26 20 c-57 45 -57 145 0 189 l26 21 -97
0 -96 0 0 -115z"/>
<path d="M550 550 c15 -16 30 -42 33 -58 9 -43 -10 -98 -40 -122 l-26 -20 97
0 96 0 0 115 0 115 -94 0 -94 0 28 -30z"/>
<path d="M450 545 c0 -8 -6 -15 -14 -15 -13 0 -26 -20 -26 -41 0 -5 16 -19 35
-30 40 -24 36 -44 -6 -35 -34 7 -42 -19 -9 -29 11 -3 20 -11 20 -16 0 -5 5 -9
10 -9 6 0 10 7 10 15 0 8 6 15 14 15 14 0 26 21 26 46 0 7 -13 20 -30 29 -37
19 -39 35 -5 35 30 0 32 10 5 33 -25 21 -30 21 -30 2z"/>
</g>
</svg>
