<?xml version="1.0" standalone="no"?>
<!DOCTYPE svg PUBLIC "-//W3C//DTD SVG 20010904//EN"
 "http://www.w3.org/TR/2001/REC-SVG-20010904/DTD/svg10.dtd">
<svg version="1.0" xmlns="http://www.w3.org/2000/svg"
 width="100.000000pt" height="100.000000pt" viewBox="0 0 100.000000 100.000000"
 preserveAspectRatio="xMidYMid meet">

<g transform="translate(0.000000,100.000000) scale(0.100000,-0.100000)"
fill="#000000" stroke="none">
<path d="M363 778 l-132 -41 -7 -45 c-11 -70 2 -212 24 -274 39 -110 114 -188
212 -223 34 -12 46 -12 80 0 98 35 173 113 212 223 22 62 35 204 24 274 l-7
45 -122 37 c-67 20 -129 39 -137 41 -8 2 -74 -15 -147 -37z m272 -15 l123 -37
7 -70 c7 -82 -7 -183 -36 -261 -39 -105 -167 -204 -246 -192 -82 14 -184 110
-218 208 -25 69 -37 170 -30 245 l7 70 117 36 c64 20 124 37 135 37 10 1 74
-16 141 -36z"/>
<path d="M380 741 l-115 -37 1 -119 c0 -100 4 -130 23 -177 27 -70 86 -132
156 -164 51 -24 55 -24 92 -9 142 59 207 178 201 371 l-3 98 -105 33 c-58 18
-112 35 -120 37 -8 2 -67 -13 -130 -33z m290 -134 c0 -7 -47 -59 -104 -116
-117 -116 -109 -115 -185 -38 -31 33 -42 51 -37 63 6 15 15 9 59 -34 l53 -52
99 100 c92 92 115 108 115 77z"/>
</g>
</svg>
